# xmcd
#
# Track frame offsets:
#	150
#	13992
#	31274
#	53628
#	70027
#	91141
#	99160
#	119537
#	134429
#	152567
#	170821
#	188613
#	209183
#	230685
#
# Disc length: 3373 seconds
#
# Revision: 0
# Processed by: cddbd v1.5.2PL0 Copyright (c) Steve Scherf et al.
# Submitted via: audiograbber 1.83.01
#
DISCID=be0d2b0e
DTITLE=Rüdiger Dahlke - Aggression als Aufgabe und Chance - CD 1
DYEAR=1900
DGENRE=Hörbuch
TTITLE0=Aggression als Aufgabe und Chance 01
TTITLE1=Aggression als Aufgabe und Chance 02
TTITLE2=Aggression als Aufgabe und Chance 03
TTITLE3=Aggression als Aufgabe und Chance 04
TTITLE4=Aggression als Aufgabe und Chance 05
TTITLE5=Aggression als Aufgabe und Chance 06
TTITLE6=Aggression als Aufgabe und Chance 07
TTITLE7=Aggression als Aufgabe und Chance 08
TTITLE8=Aggression als Aufgabe und Chance 09
TTITLE9=Aggression als Aufgabe und Chance 10
TTITLE10=Aggression als Aufgabe und Chance 11
TTITLE11=Aggression als Aufgabe und Chance 12
TTITLE12=Aggression als Aufgabe und Chance 13
TTITLE13=Aggression als Aufgabe und Chance 14
EXTD=
EXTT0=
EXTT1=
EXTT2=
EXTT3=
EXTT4=
EXTT5=
EXTT6=
EXTT7=
EXTT8=
EXTT9=
EXTT10=
EXTT11=
EXTT12=
EXTT13=
PLAYORDER=
